# xmcd
#
# Track frame offsets:
#	150
#	37635
#	55450
#	60195
#	89577
#	122925
#	153381
#	192986
#	231729
#	265560
#	336326
#
# Disc length: 4788 seconds
#
# Revision: 2
# Processed by: cddbd v1.5.1PL0 Copyright (c) Steve Scherf et al.
# Submitted via: audiograbber 1.83.01
#
DISCID=9712b20b
DTITLE=John Mayall and the Bluesbreakers - No Days Off
DYEAR=2003
DGENRE=Blues
TTITLE0=Southside Story
TTITLE1=Kids Got the Blues
TTITLE2=Introduction
TTITLE3=Dirty Water
TTITLE4=The Witching Hour
TTITLE5=Pieces and Parts
TTITLE6=The Mists of Time
TTITLE7=Kokomo
TTITLE8=Demons in the Night
TTITLE9=No Days Off
TTITLE10=I Thought I Heard The Devil
EXTD=
EXTT0=
EXTT1=
EXTT2=
EXTT3=
EXTT4=
EXTT5=
EXTT6=
EXTT7=
EXTT8=
EXTT9=
EXTT10=
PLAYORDER=
